<svg xmlns="http://www.w3.org/2000/svg" xmlns:xlink="http://www.w3.org/1999/xlink" width="13" height="12" version="1.1" viewBox="0 0 13 12"><title>path-1</title><desc>Created with Sketch.</desc><g id="KongHQ.com" fill="none" fill-opacity=".55" fill-rule="evenodd" stroke="none" stroke-width="1"><g id="installation--Detail" fill="#000" transform="translate(-181.000000, -1565.000000)"><g id="Installation" transform="translate(167.000000, 697.000000)"><g id="Start-Kong:" transform="translate(0.000000, 749.000000)"><g id="2"><path id="path-1" d="M25.375,130.375 L15.625,130.375 C14.7271875,130.375 14,129.647 14,128.75 L14,120.625 C14,119.727187 14.7271875,119 15.625,119 L25.375,119 C26.2728125,119 27,119.727187 27,120.625 L27,128.75 C27,129.647 26.2728125,130.375 25.375,130.375 L25.375,130.375 Z M25.375,122.65625 L22.0576251,125.641887 C21.6461039,126.012257 20.8684616,126.3125 20.31112,126.3125 L20.68888,126.3125 C20.1358331,126.3125 19.3550486,126.013294 18.9423749,125.641887 L15.625,122.65625 L15.625,128.75 L25.375,128.75 L25.375,122.65625 Z M16.03125,120.625 L20.1343034,124.355049 C20.3362721,124.538656 20.6697235,124.533206 20.8656966,124.355049 L24.96875,120.625 L16.03125,120.625 Z"/></g></g></g></g></g></svg>